<?xml version="1.0" standalone="no"?>
<!DOCTYPE svg PUBLIC "-//W3C//DTD SVG 20010904//EN"
 "http://www.w3.org/TR/2001/REC-SVG-20010904/DTD/svg10.dtd">
<svg version="1.0" xmlns="http://www.w3.org/2000/svg"
 width="225.000000pt" height="225.000000pt" viewBox="0 0 225.000000 225.000000"
 preserveAspectRatio="xMidYMid meet">

<g transform="translate(0.000000,225.000000) scale(0.100000,-0.100000)"
fill="#000000" stroke="none">
<path d="M1108 2173 c7 -3 16 -2 19 1 4 3 -2 6 -13 5 -11 0 -14 -3 -6 -6z"/>
<path d="M993 2163 c9 -2 23 -2 30 0 6 3 -1 5 -18 5 -16 0 -22 -2 -12 -5z"/>
<path d="M1228 2163 c6 -2 18 -2 25 0 6 3 1 5 -13 5 -14 0 -19 -2 -12 -5z"/>
<path d="M928 2153 c7 -3 16 -2 19 1 4 3 -2 6 -13 5 -11 0 -14 -3 -6 -6z"/>
<path d="M1308 2153 c7 -3 16 -2 19 1 4 3 -2 6 -13 5 -11 0 -14 -3 -6 -6z"/>
<path d="M380 1863 l-55 -58 58 55 c31 30 57 56 57 57 0 8 -10 -1 -60 -54z"/>
<path d="M1860 1865 c30 -30 57 -55 59 -55 3 0 -19 25 -49 55 -30 30 -57 55
-59 55 -3 0 19 -25 49 -55z"/>
<path d="M289 1763 c-13 -16 -12 -17 4 -4 9 7 17 15 17 17 0 8 -8 3 -21 -13z"/>
<path d="M1545 1698 l-60 -63 63 60 c34 33 62 61 62 62 0 8 -10 -1 -65 -59z"/>
<path d="M1770 1605 c47 -47 87 -85 90 -85 2 0 -33 38 -80 85 -47 47 -87 85
-90 85 -2 0 33 -38 80 -85z"/>
<path d="M1260 1403 l-105 -108 108 105 c99 97 112 110 104 110 -1 0 -50 -48
-107 -107z"/>
<path d="M1780 1415 c-41 -41 -72 -75 -69 -75 2 0 38 34 79 75 41 41 72 75 69
75 -2 0 -38 -34 -79 -75z"/>
<path d="M91 1314 c0 -11 3 -14 6 -6 3 7 2 16 -1 19 -3 4 -6 -2 -5 -13z"/>
<path d="M2151 1314 c0 -11 3 -14 6 -6 3 7 2 16 -1 19 -3 4 -6 -2 -5 -13z"/>
<path d="M82 1250 c0 -14 2 -19 5 -12 2 6 2 18 0 25 -3 6 -5 1 -5 -13z"/>
<path d="M2162 1240 c0 -14 2 -19 5 -12 2 6 2 18 0 25 -3 6 -5 1 -5 -13z"/>
<path d="M767 1120 l113 -115 77 80 78 80 -78 -75 -77 -75 -113 110 -112 110
112 -115z"/>
<path d="M1465 1088 l-110 -113 113 110 c61 60 112 111 112 112 0 8 -13 -5
-115 -109z"/>
<path d="M71 1134 c0 -11 3 -14 6 -6 3 7 2 16 -1 19 -3 4 -6 -2 -5 -13z"/>
<path d="M425 1048 l-40 -43 43 40 c23 21 42 40 42 42 0 8 -9 0 -45 -39z"/>
<path d="M82 1010 c0 -14 2 -19 5 -12 2 6 2 18 0 25 -3 6 -5 1 -5 -13z"/>
<path d="M2162 1010 c0 -14 2 -19 5 -12 2 6 2 18 0 25 -3 6 -5 1 -5 -13z"/>
<path d="M91 934 c0 -11 3 -14 6 -6 3 7 2 16 -1 19 -3 4 -6 -2 -5 -13z"/>
<path d="M2151 934 c0 -11 3 -14 6 -6 3 7 2 16 -1 19 -3 4 -6 -2 -5 -13z"/>
<path d="M555 810 c60 -60 112 -110 115 -110 2 0 -45 50 -105 110 -60 61 -112
110 -115 110 -2 0 45 -49 105 -110z"/>
<path d="M1130 743 l-105 -108 108 105 c59 57 107 106 107 107 0 8 -13 -5
-110 -104z"/>
<path d="M825 530 c21 -22 41 -40 44 -40 3 0 -13 18 -34 40 -21 22 -41 40 -44
40 -3 0 13 -18 34 -40z"/>
<path d="M385 380 c33 -33 62 -60 64 -60 3 0 -21 27 -54 60 -33 33 -62 60 -64
60 -3 0 21 -27 54 -60z"/>
<path d="M1860 383 l-55 -58 58 55 c53 50 62 60 54 60 -1 0 -27 -26 -57 -57z"/>
<path d="M928 93 c7 -3 16 -2 19 1 4 3 -2 6 -13 5 -11 0 -14 -3 -6 -6z"/>
<path d="M1308 93 c7 -3 16 -2 19 1 4 3 -2 6 -13 5 -11 0 -14 -3 -6 -6z"/>
<path d="M993 83 c9 -2 23 -2 30 0 6 3 -1 5 -18 5 -16 0 -22 -2 -12 -5z"/>
<path d="M1233 83 c9 -2 23 -2 30 0 6 3 -1 5 -18 5 -16 0 -22 -2 -12 -5z"/>
</g>
</svg>
